<svg version="1.1" viewBox="0 0 72.74 116.77" xmlns="http://www.w3.org/2000/svg"  >
<metadata>
</metadata>
<g transform="translate(-266.22 -380.39)" fill="#fff">
<path d="m305.79 435.31c-2.6647 1.6447-12.382 7.3031-22.997 9.3135 0.94258 5.9885 4.7428 29.662 6.2772 32.088 1.092 1.7268 6.0264 7.3278 10.481 11.646 2.9019 2.8136 5.4691 5.0292 6.2623 5.0292v5e-3h0.0205v-5e-3c0.79317 0 3.3605-2.2155 6.2623-5.0292 4.4542-4.3187 9.3886-9.9196 10.481-11.646 1.5345-2.4265 5.3347-26.1 6.2773-32.088-10.615-2.0104-20.332-7.6685-22.997-9.3135l-0.0335 0.0226z" fill-rule="evenodd" stroke-width=".9004"/>
<ellipse cx="294.62" cy="407.13" rx="4.8442" ry="5.0561" stroke="#fff" stroke-linecap="round" stroke-linejoin="round" stroke-miterlimit="0" stroke-width="2.1794" style="paint-order:fill markers stroke"/>
</g>
<path d="m11.241 68.996c-0.642-0.5079-1.3371-1.2883-1.853-2.4346-3.3528-7.4492-4.0445-9.6367-0.1933-10.033 2.9012-0.2987 7.2388-0.1689 10.087 0.9154l0.1046 0.0272c-2.6379 0.7897-5.4096 1.4524-8.2216 1.8756l-1.51 0.2271 0.2435 1.5069c5e-3 0.03 0.5383 3.3069 1.3425 7.9157zm-2.3363-41.049c0.8668-0.54 1.4936 0.117 1.4346 0.9978-0.0315 0.4691-0.5652 2.131-2.1838 2.5602 0 0 1.5449-0.839 1.4757-2.4466-0.017-0.3951-0.3512-0.7832-0.7265-1.1114zm19.517-8.8674c3.7599 0 6.895 2.6722 7.6105 6.2212-1.3275-3.0183-4.2359-5.1131-7.6105-5.1131-3.3747 0-6.2827 2.0948-7.6105 5.1131 0.7155-3.549 3.8509-6.2212 7.6105-6.2212zm0 1.9452c3.2136 0 5.8187 2.605 5.8187 5.8186 0 3.2134-2.6051 5.8184-5.8187 5.8184-3.2134 0-5.8184-2.605-5.8184-5.8184 0-3.2136 2.605-5.8186 5.8184-5.8186zm-2.6819 34.232c0.1078-0.9479 0.108-1.9503-8e-3 -3.4447-0.1947-2.5109-1.5123-1.3629-6.0664-2.8908-3.8044-1.277-12.695-5.447-15.304-8.3454-0.5148-0.5729-0.8127-0.9017-1.2833-1.501-0.4368-0.5559-0.7248-0.7217-1.0167-1.1565 0.5978-0.0661 1.1871-0.1029 1.7671-0.1145 0.2276-5e-3 0.4535-5e-3 0.678-3e-3l1.5381 2.1971 0.5661-2.0673c2.1628 0.2364 4.1445 0.7626 5.8677 1.3278 0.8527 0.2798 1.7322 0.5879 2.6305 0.9014l-0.3699 2.0472 2.6796-1.2546c1.3884 0.4614 2.8046 0.8937 4.2214 1.2214l0.1981 1.9803 2.0112-1.5644c1.559 0.2191 3.1025 0.2624 4.5944 0.0283l0.396 2.0004 2.2875-2.77c1.3179-0.5715 2.5722-1.4375 3.7333-2.6816-7.9937 5.5953-18.377-0.6582-26.322-1.9394-4.9036-0.7909-7.0973-0.3172-8.0779 0.2344-2.1977-1.226 4.0972-11.095 5.6073-12.99 2.9355-3.6842 13.148-2.6861 17.001-5.8501 4.0238-3.3075 10.815 0.6389 13.921 3.4362 2.6538 2.3898 3.4662 6.1401 4.1414 9.5082 0.3679 1.8352 0.7546 3.6876 0.9638 5.5596 0.7282 6.5239-1.1192 8.7162-2.6961 11.337l-7e-3 -5e-3 -4e-3 3e-3 -4e-3 -3e-3 -0.2775 0.176-0.523 0.3223c-0.0241 0.0148-5.3373 3.331-12.844 6.2995zm22.645 56.551c-0.2707 0.8912-0.5326 2.151-0.726 4.2843-0.1102 1.2158 5.8003 0.097 10.212 0.3322 0.3095 0.0168 18.611 1.0353 14.178-0.5349-0.5922-0.2097-7.8302-3.5135-9.7558-4.026-3.6995-0.985-6.3348-0.0448-6.5055-1.1642-0.2772-1.815 0.5874-4.4716 1.8907-8.2409-2.4868 2.7386-5.9051 6.2348-9.0878 9.1619zm-17.318 0.6095c0.2064 0.8447 0.3991 1.9862 0.5499 3.6748 0.1086 1.2158-5.7143 0.097-10.061 0.3322-0.3047 0.0168-18.335 1.0353-13.967-0.5349 0.5836-0.2097 7.7142-3.5135 9.6114-4.026 3.6445-0.985 6.2408-0.0448 6.4091-1.1642 0.2455-1.631-0.4172-3.9416-1.4862-7.1286 2.3559 2.5328 5.2994 5.5061 8.0652 8.0496 0.2942 0.2704 0.5876 0.5363 0.8787 0.7971zm11.173-111.61c25.699 7.9368 27.473 34.107 23.938 58.306-2.0574-0.3691-4.0839-0.8575-6.0429-1.4205l4e-3 -0.028c3.1822-20.878 2.3446-43.112-13.294-53.096-0.7963-0.5083-6.0055-3.301-8.2758-4.2228-0.7554-0.3067-0.4059-0.7594 3.6698 0.4617z" fill="#0a0" fill-rule="evenodd"/>
<path d="m26.527 23.823c0.9182-2e-3 1.6665 1.5463 1.6713 3.4594 5e-3 1.9128-0.7353 3.4653-1.6534 3.4676-0.9182 2e-3 -1.6665-1.5463-1.6713-3.4591-5e-3 -1.9129 0.7353-3.4654 1.6534-3.4679zm-0.1709 1.3413c0.2273-6e-4 0.4127 0.383 0.4139 0.8569 1e-3 0.4737-0.1823 0.8584-0.4096 0.8589-0.2274 6e-4 -0.4128-0.3829-0.4139-0.8569-1e-3 -0.4737 0.182-0.8583 0.4096-0.8589z" fill-rule="evenodd"/>
<path d="m39.35 52.017c-3.0387 1.779-14.12 7.8993-26.225 10.074 1.0749 6.4774 5.4085 32.083 7.1583 34.708 1.2453 1.8678 6.8723 7.926 11.952 12.597 3.3092 3.0433 6.2368 5.4397 7.1413 5.4397v5e-3h0.0233v-5e-3c0.9045 0 3.8322-2.3964 7.1413-5.4397 5.0794-4.6712 10.706-10.729 11.952-12.597 1.7499-2.6246 6.0835-28.23 7.1584-34.708-12.105-2.1745-23.186-8.2945-26.225-10.074l-0.0382 0.0244zm0.0383 54.9-0.0117 5e-4c-1.2908 0-3.6941-1.9321-6.163-4.386-3.2831-3.263-6.9755-7.5844-7.8256-8.962-1.539-2.4945-4.9729-25.332-4.9828-25.397l-0.2253-1.4754 1.4799-0.2407c8.72-1.4182 16.848-6.9015 16.871-6.9171l0.8498-0.5735 8e-3 5e-3 8e-3 -5e-3 0.8501 0.5735c0.0233 0.0156 8.1508 5.4989 16.871 6.9171l1.48 0.2407-0.2254 1.4754c-0.01 0.0655-3.4438 22.903-4.9827 25.397-0.8501 1.3776-4.5425 5.699-7.8256 8.962-2.469 2.4539-4.8719 4.386-6.1631 4.386z" fill="#ab0000" fill-rule="evenodd"/>
<path d="m52.133 70.74c-1.554 4.0507-2.9934 7.7572-4.3181 11.12-0.5607 1.4519-1.1273 2.8913-1.7005 4.318-0.5731 1.4267-1.1083 2.7513-1.6049 3.9742-0.497 1.2228-0.9428 2.2864-1.3377 3.1906-0.3949 0.9046-0.6942 1.5478-0.898 1.9299-0.4329 0.8152-0.9425 1.3756-1.5285 1.6815-0.5859 0.3056-1.1335 0.4839-1.6432 0.5349-0.6367 0.0765-1.2609 0.0127-1.8723-0.1911l-10.585-26.558c0.6114-0.1018 1.2291-0.1463 1.8533-0.1336 0.6242 0.0128 1.2038 0.1146 1.7387 0.3056 0.5349 0.1911 1.0253 0.4842 1.4712 0.879 0.4459 0.3949 0.8087 0.9236 1.0891 1.5857 0.0255 0.1021 0.1465 0.4269 0.3631 0.9746 0.2166 0.5476 0.4839 1.2356 0.8025 2.0633 0.3183 0.828 0.6687 1.7516 1.0508 2.7706 0.3821 1.0191 0.777 2.0509 1.1846 3.0952 0.9425 2.4712 2.0126 5.2353 3.2099 8.2924 1.1719-3.0571 2.2292-5.8212 3.1717-8.2924 0.4077-1.0443 0.8025-2.0761 1.1846-3.0952 0.3821-1.019 0.7325-1.9426 1.0508-2.7706 0.3186-0.8277 0.586-1.5157 0.8025-2.0633 0.2166-0.5477 0.3504-0.8725 0.4014-0.9746 0.2801-0.6621 0.6432-1.1908 1.0891-1.5857 0.4456-0.3948 0.936-0.6879 1.4712-0.879 0.5349-0.191 1.108-0.2928 1.7195-0.3056 0.6114-0.0127 1.2228 0.0318 1.8343 0.1336z" fill-rule="evenodd" stroke="#000" stroke-width="1.0001"/>
</svg>
