<?xml version="1.0" encoding="UTF-8" standalone="no"?>
<svg
   xmlns:dc="http://purl.org/dc/elements/1.1/"
   xmlns:cc="http://creativecommons.org/ns#"
   xmlns:rdf="http://www.w3.org/1999/02/22-rdf-syntax-ns#"
   xmlns:svg="http://www.w3.org/2000/svg"
   xmlns="http://www.w3.org/2000/svg"
   viewBox="0 0 501.45334 675.44"
   height="675.44"
   width="501.45334"
   xml:space="preserve"
   id="svg2"
   version="1.1"><metadata
     id="metadata8"><rdf:RDF><cc:Work
         rdf:about=""><dc:format>image/svg+xml</dc:format><dc:type
           rdf:resource="http://purl.org/dc/dcmitype/StillImage" /><dc:title></dc:title></cc:Work></rdf:RDF></metadata><defs
     id="defs6" /><g
     transform="matrix(1.3333333,0,0,-1.3333333,0,675.44)"
     id="g10"><g
       transform="scale(0.1)"
       id="g12"><path
         id="path14"
         style="fill:#53c053;fill-opacity:1;fill-rule:evenodd;stroke:none"
         d="m 2078.55,4739.11 c 971.2,-299.93 1038.26,-1288.95 904.66,-2203.45 -77.75,13.95 -154.33,32.41 -228.37,53.68 l 0.16,1.06 c 120.26,789.03 88.61,1629.26 -502.38,2006.58 -30.1,19.21 -226.96,124.75 -312.76,159.59 -28.55,11.59 -15.34,28.7 138.69,-17.46 z M 1656.31,521.031 c 7.8,-31.922 15.08,-75.062 20.78,-138.883 4.11,-45.949 -215.95,-3.656 -380.21,-12.558 -11.51,-0.629 -692.903,-39.121 -527.845,20.219 22.055,7.929 291.535,132.781 363.235,152.152 137.73,37.23 235.84,1.687 242.2,44 9.28,61.641 -15.76,148.961 -56.16,269.391 89.03,-95.711 200.27,-208.082 304.79,-304.204 11.12,-10.218 22.21,-20.269 33.21,-30.117 z m 654.48,23.028 c -10.23,-33.68 -20.13,-81.289 -27.44,-161.911 -4.17,-45.949 219.2,-3.656 385.91,-12.558 11.7,-0.629 703.32,-39.121 535.79,20.219 -22.38,7.929 -295.92,132.781 -368.69,152.152 -139.81,37.23 -239.4,1.687 -245.85,44 -10.48,68.59 22.2,168.988 71.45,311.43 C 2567.98,793.898 2438.8,661.77 2318.52,551.148 l -7.73,-7.089 z M 1455.01,2681.22 c 283.68,112.19 484.48,237.51 485.39,238.07 l 19.76,12.18 10.49,6.65 0.16,-0.1 0.15,0.1 0.27,-0.17 c 59.59,99.06 129.41,181.91 101.89,428.46 -7.91,70.75 -22.52,140.75 -36.43,210.11 -25.51,127.28 -56.21,269.01 -156.5,359.32 -117.39,105.72 -374.03,254.86 -526.1,129.86 -145.6,-119.57 -531.567,-81.85 -642.504,-221.08 -57.07,-71.63 -294.965,-444.58 -211.91,-490.92 37.058,20.85 119.965,38.75 305.277,8.86 300.267,-48.42 692.667,-284.74 994.757,-73.29 -43.88,-47.02 -91.28,-79.74 -141.09,-101.34 l -86.44,-104.68 -14.97,75.59 c -56.38,-8.85 -114.71,-7.21 -173.63,1.07 l -76,-59.12 -7.49,74.84 c -53.54,12.39 -107.06,28.72 -159.53,46.16 l -101.27,-47.41 13.98,77.36 c -33.95,11.85 -67.184,23.49 -99.411,34.07 -65.121,21.36 -140.015,41.24 -221.75,50.18 l -21.394,-78.13 -58.125,83.03 c -8.485,0.11 -17.024,0.08 -25.621,-0.09 -21.922,-0.44 -44.192,-1.83 -66.785,-4.33 11.031,-16.43 21.918,-22.7 38.425,-43.71 17.782,-22.65 29.043,-35.07 48.496,-56.72 98.586,-109.54 434.575,-267.13 578.355,-315.39 172.1,-57.74 221.9,-14.36 229.25,-109.25 4.38,-56.47 4.38,-94.35 0.3,-130.18 z m 101.36,1293.69 c -121.44,0 -219.89,-98.44 -219.89,-219.89 0,-121.44 98.45,-219.89 219.89,-219.89 121.44,0 219.89,98.45 219.89,219.89 0,121.45 -98.45,219.89 -219.89,219.89 z m 0,73.52 c 142.09,0 260.57,-100.99 287.61,-235.11 -50.17,114.06 -160.08,193.23 -287.61,193.23 -127.54,0 -237.44,-79.17 -287.62,-193.23 27.04,134.12 145.53,235.11 287.62,235.11 z M 818.785,3713.31 c 32.758,20.41 56.445,-4.42 54.215,-37.7 -1.191,-17.73 -21.359,-80.54 -82.527,-96.76 0,0 58.382,31.71 55.765,92.46 -0.64,14.93 -13.269,29.6 -27.453,42 z m 88.293,-1551.29 c -24.262,19.2 -50.531,48.69 -70.027,92.01 -126.707,281.52 -152.848,364.18 -7.309,379.17 109.645,11.29 273.568,6.39 381.218,-34.59 l 3.95,-1.03 c -99.69,-29.84 -204.44,-54.89 -310.707,-70.89 l -57.062,-8.57 9.203,-56.95 c 0.179,-1.14 20.34,-124.97 50.734,-299.15 v 0" /><path
         id="path16"
         style="fill:#53c053;fill-opacity:1;fill-rule:evenodd;stroke:none"
         d="m 1478.29,3818.49 c -8.6,-0.02 -15.52,-14.56 -15.48,-32.46 0.04,-17.91 7.05,-32.4 15.64,-32.38 8.59,0.02 15.53,14.56 15.48,32.46 -0.04,17.91 -7.05,32.4 -15.64,32.38 z m 6.46,50.69 c 34.7,0.09 62.98,-58.44 63.16,-130.74 0.19,-72.28 -27.79,-130.95 -62.48,-131.04 -34.7,-0.09 -62.98,58.44 -63.16,130.72 -0.19,72.29 27.78,130.97 62.48,131.06 v 0" /><path
         id="path18"
         style="fill:#f5751e;fill-opacity:1;fill-rule:evenodd;stroke:none"
         d="m 1970.81,728.922 -0.44,-0.031 c -48.78,0 -139.6,73.019 -232.91,165.757 -124.07,123.312 -263.61,286.632 -295.74,338.692 -58.16,94.27 -187.93,957.32 -188.31,959.8 l -8.51,55.76 55.93,9.09 c 329.54,53.6 636.69,260.82 637.57,261.41 l 32.11,21.67 0.3,-0.2 0.29,0.2 32.13,-21.67 c 0.88,-0.59 308.03,-207.81 637.57,-261.41 l 55.93,-9.09 -8.52,-55.76 c -0.37,-2.48 -130.15,-865.53 -188.3,-959.8 -32.13,-52.06 -171.67,-215.38 -295.75,-338.692 -93.3,-92.738 -184.11,-165.757 -232.91,-165.757 z m -1.44,2074.758 c -114.84,-67.23 -533.61,-298.53 -991.073,-380.7 40.623,-244.79 204.393,-1212.48 270.523,-1311.67 47.06,-70.58 259.71,-299.529 451.67,-476.06 125.06,-115.02 235.7,-205.578 269.88,-205.578 v -0.192 h 0.88 v 0.192 c 34.18,0 144.83,90.558 269.88,205.578 191.96,176.531 404.62,405.48 451.67,476.06 66.14,99.19 229.91,1066.88 270.53,1311.67 -457.47,82.17 -876.23,313.46 -991.07,380.7 l -1.45,-0.92 -1.44,0.92 v 0" /><path
         id="path20"
         style="fill:#53c053;fill-opacity:1;fill-rule:nonzero;stroke:none"
         d="m 2455.54,2114.78 c -21.48,3.56 -43.22,5.37 -64.7,5.37 l -8.11,-0.08 c -25.03,-0.51 -48.9,-4.77 -70.94,-12.64 -22.4,-8 -43.21,-20.4 -61.81,-36.88 -18.9,-16.76 -34.36,-39.2 -45.51,-65.64 -2.03,-4 -7.31,-16.77 -15.83,-38.29 -8.23,-20.74 -18.31,-46.8 -30.41,-78.17 -12.03,-31.33 -25.28,-66.26 -39.75,-104.85 -14.43,-38.41 -29.3,-77.33 -44.73,-116.86 -30.89,-80.95 -64.99,-170.21 -102.41,-267.79 -38.09,97.58 -72.6,186.88 -103.52,267.92 -15.36,39.4 -30.23,78.32 -44.66,116.75 -14.47,38.55 -27.72,73.5 -39.75,104.87 -12.1,31.33 -22.18,57.39 -30.41,78.13 -7.6,19.21 -11.99,30.69 -13.87,37.24 -11.67,27.49 -27.13,49.93 -46.06,66.71 -18.57,16.46 -39.36,28.86 -61.78,36.86 -22.02,7.87 -46.12,12.13 -71.65,12.64 l -8.25,0.08 c -21.87,0 -43.83,-1.81 -65.29,-5.37 l -23.14,-3.84 411.94,-1033.64 8.34,-2.78 c 18.68,-6.22 37.91,-9.36 57.13,-9.36 7.24,0 14.54,0.42 21.48,1.27 21.52,2.14 44.73,9.64 68.98,22.26 25.5,13.32 47.61,37.36 65.69,71.41 7.9,14.82 19.23,39.12 34.58,74.27 14.99,34.29 31.89,74.64 50.78,121.04 18.75,46.24 38.98,96.3 60.64,150.24 21.7,53.99 43.14,108.48 64.29,163.31 50.12,127.14 104.52,267.27 163.27,420.41 l 8.31,21.63 -22.85,3.78" /></g></g></svg>