<?xml version="1.0" encoding="utf-8"?>
<!-- Generator: Adobe Illustrator 24.1.1, SVG Export Plug-In . SVG Version: 6.00 Build 0)  -->
<svg version="1.1" id="Layer_1" xmlns="http://www.w3.org/2000/svg" xmlns:xlink="http://www.w3.org/1999/xlink" x="0px" y="0px"
	 viewBox="0 0 512 512" style="enable-background:new 0 0 512 512;" xml:space="preserve">
<style type="text/css">
	.st0{fill:#9EDCF2;}
	.st1{clip-path:url(#SVGID_2_);fill:#7DBCE7;}
	.st2{fill:#010101;}
	.st3{fill:#F5CCB3;}
	.st4{fill:#FFFFFF;}
	.st5{fill:#AF5C51;}
	.st6{fill:#C4E5D9;}
</style>
<g>
	<path class="st0" d="M400,394.5c0,27.5-63.6,49.6-142,49.6s-142-22.3-142-49.6c0-27.4,63.6-49.6,142-49.6S400,367.1,400,394.5z"/>
	<g>
		<defs>
			<path id="SVGID_1_" d="M197,483.4c3.2,14.8,10.9,23.5,18.6,28.6h81.2c9.9-6.7,19.9-19.4,19.9-43.1v-61.2c0,0,1.2-15.2,15.2-20.1
				c0,0,8.1-5.7-0.6-8.9c0,0-38.5-3.2-38.5,28.4v46.6c0,0,1.6,17.2-7.5,24.3v-57.7c0,0,0.6-18.4,10.1-25.3c0,0,6.3-11.3-7.5-8.3
				c0,0-26.5,3.8-27.6,34.8l-0.6,59.2h-6.3l-0.6-59.2c-1.2-30.8-27.6-34.8-27.6-34.8c-13.8-3.2-7.5,8.3-7.5,8.3
				c9.5,6.9,10.1,25.3,10.1,25.3v58.3c-9.1-6.5-7.5-24.9-7.5-24.9v-46.6c0-31.6-38.5-28.4-38.5-28.4c-8.9,3.2-0.6,8.9-0.6,8.9
				c13.8,5.1,15.2,20.1,15.2,20.1v42.9L197,483.4z"/>
		</defs>
		<clipPath id="SVGID_2_">
			<use xlink:href="#SVGID_1_"  style="overflow:visible;"/>
		</clipPath>
		<path class="st1" d="M400,394.5c0,27.5-63.6,49.6-142,49.6s-142-22.3-142-49.6c0-27.4,63.6-49.6,142-49.6S400,367.1,400,394.5z"/>
	</g>
	<path class="st0" d="M95.8,248.6l-4.1,14.2c0,0-1,5.1,3.8,6.1c5.1-0.2,4.7-4.9,4.3-6.3L95.8,248.6z"/>
	<path class="st2" d="M508.4,188.7l0.4-1.8c-41.7-8.3-84.3-8.5-110.2-7.3c4.1-15.2,5.5-33,5.5-52.5c0-28.2-10.7-50.8-27.6-67.7
		c3-9.7,6.9-31.2-3.9-58.7c0,0-19.4-6.1-63.4,23.3c-17.2-4.3-35.5-6.5-53.9-6.5c-20.1,0-40.5,2.6-59.6,7.7
		c-45.4-31-65.4-24.7-65.4-24.7c-13,32.6-4.9,56.9-2.6,62.8C112.2,79.9,103,101,103,126.9c0,19.6,2.2,37.1,7.7,52.3
		c-26.1-1-67.1-0.6-107.4,7.5l0.4,1.8c40.3-8.1,81.8-8.3,107.6-7.3c1.2,3.2,2.6,6.3,3.9,9.3c-25.7,0.8-69.3,4.1-111.2,16l0.6,1.8
		c42.3-11.8,86.3-15,111.8-15.8c15.4,28.4,45.4,47,99.1,52.7c-7.7,5.1-15.4,13.8-18.6,28.6c-10.5,4.9-43.2,17.2-63-16.8
		c0,0-11.1-20.1-32.2-21.7c0,0-20.5-0.4-1.4,12.8c0,0,13.6,6.5,23.1,30.8c0,0,12.4,41.5,71.9,28v42.5c0,0-1.2,15.2-15.2,20.1
		c0,0-8.3,5.7,0.6,8.9c0,0,38.5,3.2,38.5-28.4v-46.6c0,0-1.6-18.6,7.5-24.9v76.6c0,0-0.6,18.4-10.1,25.3c0,0-6.3,11.3,7.5,8.3
		c0,0,26.5-3.8,27.6-34.8l0.6-77.6h6.3l0.6,77.6c1.2,30.8,27.6,34.8,27.6,34.8c13.8,3.2,7.5-8.3,7.5-8.3
		c-9.5-6.9-10.1-25.3-10.1-25.3v-76c9.1,7.1,7.5,24.3,7.5,24.3v46.6c0,31.6,38.5,28.4,38.5,28.4c8.9-3.2,0.6-8.9,0.6-8.9
		c-13.8-5.1-15.2-20.1-15.2-20.1v-61.2c0-23.9-10.1-36.5-19.9-43.1c57.3-5.7,84.7-24.1,97.4-52.9c25.1,0.6,70.3,3.8,113.4,16
		l0.6-1.8c-42.9-12-87.7-15.2-113.2-16c1.2-3,2.2-5.9,3.2-9.1C423.7,180.4,466.5,180.4,508.4,188.7z"/>
	<path class="st3" d="M348,125.7c12.2,11.3,19.6,24.7,19.6,39.1c0,67.9-50.6,69.7-113,69.7c-62.4,0-113-9.5-113-69.7
		c0-14.4,7.1-27.8,19.4-38.9c20.3-18.6,54.7-8.7,93.6-8.7C293.5,117.2,327.7,107.2,348,125.7z"/>
	<path class="st4" d="M217.1,168.4c0,18.8-10.5,33.8-23.5,33.8s-23.5-15.2-23.5-33.8c0-18.8,10.5-33.8,23.5-33.8
		C206.6,134.4,217.1,149.6,217.1,168.4z"/>
	<path class="st5" d="M209.6,168.8c0,12.4-7.1,22.5-15.6,22.5c-8.7,0-15.6-10.1-15.6-22.5c0-12.4,7.1-22.5,15.6-22.5
		C202.5,146.3,209.6,156.3,209.6,168.8z"/>
	<path class="st4" d="M343.3,168.4c0,18.8-10.5,33.8-23.5,33.8c-13,0-23.5-15.2-23.5-33.8c0-18.8,10.5-33.8,23.5-33.8
		C332.6,134.4,343.3,149.6,343.3,168.4z"/>
	<path class="st5" d="M335.6,168.8c0,12.4-7.1,22.5-15.6,22.5c-8.7,0-15.6-10.1-15.6-22.5c0-12.4,7.1-22.5,15.6-22.5
		C328.7,146.3,335.6,156.3,335.6,168.8z"/>
	<circle class="st5" cx="255" cy="198.4" r="5.9"/>
	<path class="st5" d="M241.4,213.2c-0.4-1,0.2-2,1.2-2.4c1-0.4,2,0.2,2.4,1.2c1.6,4.3,5.5,7.1,10.1,7.1s8.5-3,10.1-7.1
		c0.4-1,1.4-1.6,2.4-1.2c1,0.4,1.6,1.4,1.2,2.4c-2,5.7-7.5,9.7-13.6,9.7S243.4,218.9,241.4,213.2z"/>
	<ellipse class="st6" cx="106.7" cy="240.1" rx="4.1" ry="2.8"/>
	<path class="st6" d="M122.3,246.4c0,1.6-1.8,2.8-4.1,2.8c-2.2,0-4.1-1.2-4.1-2.8c0-1.6,1.8-2.8,4.1-2.8
		C120.5,243.6,122.3,244.8,122.3,246.4z"/>
	<path class="st6" d="M129.2,254.7c0,1.6-1.8,2.8-4.1,2.8c-2.2,0-4.1-1.2-4.1-2.8c0-1.6,1.8-2.8,4.1-2.8
		C127.4,251.7,129.2,253.1,129.2,254.7z"/>
	<path class="st6" d="M135.5,264.2c0,1.6-1.8,2.8-4.1,2.8c-2.2,0-4.1-1.2-4.1-2.8c0-1.6,1.8-2.8,4.1-2.8
		C133.8,261.2,135.5,262.6,135.5,264.2z"/>
	<ellipse class="st6" cx="138.3" cy="272.9" rx="4.1" ry="2.8"/>
	<path class="st6" d="M151.9,280.6c0,1.6-1.8,2.8-4.1,2.8c-2.2,0-4.1-1.2-4.1-2.8c0-1.6,1.8-2.8,4.1-2.8
		C150.2,277.6,151.9,279,151.9,280.6z"/>
	<ellipse class="st6" cx="161" cy="285.5" rx="4.1" ry="2.8"/>
	<ellipse class="st6" cx="174.2" cy="285.5" rx="4.1" ry="2.8"/>
	<path class="st6" d="M191.8,283.3c0,1.6-1.8,2.8-4.1,2.8c-2.2,0-4.1-1.2-4.1-2.8c0-1.6,1.8-2.8,4.1-2.8
		C189.8,280.6,191.8,281.7,191.8,283.3z"/>
</g>
</svg>
