<?xml version="1.0" encoding="utf-8"?>
<!-- Generator: Adobe Illustrator 21.0.0, SVG Export Plug-In . SVG Version: 6.00 Build 0)  -->
<svg version="1.1" id="Layer_1" xmlns="http://www.w3.org/2000/svg" xmlns:xlink="http://www.w3.org/1999/xlink" x="0px" y="0px"
	 viewBox="0 0 512 512" style="enable-background:new 0 0 512 512;" xml:space="preserve">
<style type="text/css">
	.st0{fill:#FFC107;}
	.st1{fill:#FF3D00;}
	.st2{fill:#4CAF50;}
	.st3{fill:#1976D2;}
</style>
<g>
	<path class="st0" d="M507,205.9h-20.6v-1.1H256v102.4h144.7c-21.1,59.6-77.8,102.4-144.7,102.4c-84.8,0-153.6-68.8-153.6-153.6
		S171.2,102.4,256,102.4c39.2,0,74.8,14.8,101.9,38.9l72.4-72.4C384.6,26.3,323.4,0,256,0C114.6,0,0,114.6,0,256s114.6,256,256,256
		s256-114.6,256-256C512,238.8,510.2,222.1,507,205.9z"/>
	<path class="st1" d="M29.5,136.8l84.1,61.7c22.8-56.3,77.9-96.1,142.4-96.1c39.2,0,74.8,14.8,101.9,38.9l72.4-72.4
		C384.6,26.3,323.4,0,256,0C157.7,0,72.4,55.5,29.5,136.8z"/>
	<path class="st2" d="M256,512c66.1,0,126.2-25.3,171.6-66.5l-79.2-67.1c-25.7,19.5-57.7,31.1-92.4,31.1
		c-66.6,0-123.1-42.5-144.4-101.7l-83.5,64.3C70.5,455.1,156.5,512,256,512z"/>
	<path class="st3" d="M507,205.9h-20.6v-1.1H256v102.4h144.7c-10.1,28.6-28.6,53.3-52.3,71.3l0,0l79.2,67C422,450.6,512,384,512,256
		C512,238.8,510.2,222.1,507,205.9z"/>
</g>
</svg>
